# Blender v2.73 (sub 0) OBJ File: ''
# www.blender.org
o Cube
v 1.000000 0.001987 -1.000000
v 1.000000 0.001987 1.000000
v -1.000000 0.001987 1.000000
v -1.000000 0.001987 -1.000000
v 1.000000 2.001987 -1.595186
v 0.999999 2.399197 1.079921
v -1.000000 2.001987 1.000000
v -1.000000 2.001987 -1.000000
vt 1.650398 0.223464
vt 1.650398 0.686382
vt 1.187479 0.686382
vt 1.390314 0.540944
vt 1.187479 0.223464
vt 1.649152 0.686382
vn 0.000000 -1.000000 -0.000000
vn -0.194800 0.980800 0.000000
vn 1.000000 -0.000000 0.000000
vn -0.033300 -0.033300 0.998900
vn -1.000000 -0.000000 -0.000000
vn 0.000000 0.000000 -1.000000
vn -0.043700 0.988200 -0.146700
vn -0.000000 0.000000 1.000000
vn -0.274300 -0.274300 -0.921700
s off
f 2/1/1 3/2/1 4/3/1
f 8/1/2 7/2/2 6/3/2
f 1/4/3 5/1/3 6/2/3
f 2/5/4 6/1/4 7/2/4
f 3/5/5 7/1/5 8/6/5
f 1/1/6 4/2/6 8/3/6
f 1/4/1 2/1/1 4/3/1
f 5/5/7 8/1/7 6/3/7
f 2/3/3 1/4/3 6/2/3
f 3/3/8 2/5/8 7/2/8
f 4/3/5 3/5/5 8/6/5
f 5/5/9 1/1/9 8/3/9
